<svg id="Capa_1" enable-background="new 0 0 512 512" height="512" viewBox="0 0 512 512" width="512" xmlns="http://www.w3.org/2000/svg"><path d="m424.865 4.396c-2.813-2.814-6.629-4.395-10.607-4.396-.001 0-.001 0-.002 0-3.978 0-7.794 1.581-10.606 4.394l-45.453 45.453c38.163 38.163 38.163 100.037 0 138.199l-170.152 170.153c-38.163 38.163-100.037 38.163-138.199 0l-45.452 45.451c-5.857 5.857-5.858 15.353-.002 21.211 56.045 56.063 130.492 86.996 209.685 87.139 164.255.296 297.924-133.118 297.923-297.373 0-79.355-30.945-154.017-87.135-210.231z" fill="#7bce00"/><path d="m424.865 4.396c-2.813-2.814-6.629-4.395-10.607-4.396-.001 0-.001 0-.002 0-3.978 0-7.794 1.581-10.606 4.394l-45.453 45.453c38.163 38.163 38.163 100.037 0 138.199l-85.075 85.075 151.703 151.703c53.836-53.832 87.175-128.167 87.175-210.197 0-79.355-30.945-154.017-87.135-210.231z" fill="#60b735"/><path d="m214.612 447.717c-62.248 0-120.765-24.26-164.771-68.312-5.852-5.858-5.851-15.351.005-21.207l308.351-308.351c5.855-5.856 15.349-5.86 21.208-.007 44.072 44.02 68.313 102.517 68.313 164.773-.001 128.534-104.571 233.104-233.106 233.104z" fill="#ff415b"/><g fill="#cf0050"><path d="m379.405 49.84c-5.859-5.853-15.353-5.849-21.208.007l-154.175 154.175 175.343 175.343c42.209-42.209 68.352-100.485 68.352-164.753 0-62.255-24.24-120.752-68.312-164.772z"/><path d="m181.127 363.006-16.066-16.066c-5.858-5.858-5.858-15.355 0-21.213 5.857-5.858 15.355-5.858 21.213 0l16.066 16.066c5.858 5.858 5.858 15.355 0 21.213-5.858 5.86-15.357 5.857-21.213 0z"/><path d="m261.46 282.673-16.066-16.067c-5.858-5.858-5.858-15.355 0-21.213 5.858-5.857 15.356-5.857 21.213 0l16.066 16.067c5.858 5.858 5.858 15.355 0 21.213-5.86 5.86-15.357 5.857-21.213 0z"/><path d="m269.493 371.04-16.066-16.066c-5.858-5.858-5.858-15.355 0-21.213 5.857-5.858 15.355-5.858 21.213 0l16.066 16.066c5.858 5.858 5.858 15.355 0 21.213-5.858 5.859-15.357 5.857-21.213 0z"/></g><path d="m349.827 290.707-16.067-16.067c-5.858-5.858-5.858-15.355 0-21.213 5.857-5.858 15.355-5.858 21.213 0l16.067 16.067c5.858 5.858 5.858 15.355 0 21.213-5.858 5.859-15.356 5.857-21.213 0z" fill="#b20042"/><path d="m341.794 202.34-16.067-16.067c-5.858-5.858-5.858-15.355 0-21.213 5.857-5.858 15.355-5.858 21.213 0l16.067 16.067c5.858 5.858 5.858 15.355 0 21.213-5.858 5.859-15.357 5.857-21.213 0z" fill="#b20042"/><path d="m282.673 261.461-16.066-16.067c-5.856-5.858-15.354-5.857-21.213 0l37.28 37.28c5.857-5.859 5.857-15.356-.001-21.213z" fill="#b20042"/></svg>
